<svg xmlns="http://www.w3.org/2000/svg" width="24" height="24" fill="none" viewBox="0 0 24 24"><g clip-path="url(#clip0_39400_7686)"><rect width="22.5" height="22.5" x=".75" y=".75" fill="none" rx="2.25"/><path d="M3.25625 7.91258L8.67136 4.71455L14.4788 7.12782L19.894 3.92979L20.7441 16.0876L15.329 19.2856L9.52151 16.8724L4.10641 20.0704L3.25625 7.91258Z"/><path fill="#E8EFFD" d="M8.67136 4.71455L9.52151 16.8724L8.67136 4.71455Z"/><path fill="#E8EFFD" d="M14.4788 7.12782L15.329 19.2856L14.4788 7.12782Z"/><path stroke="currentColor" stroke-linecap="round" stroke-linejoin="round" stroke-width="1.496" d="M8.67136 4.71455L3.25625 7.91258L4.10641 20.0704L9.52151 16.8724M8.67136 4.71455L14.4788 7.12782M8.67136 4.71455L9.52151 16.8724M14.4788 7.12782L19.894 3.92979L20.7441 16.0876L15.329 19.2856M14.4788 7.12782L15.329 19.2856M15.329 19.2856L9.52151 16.8724"/></g><defs><clipPath id="clip0_39400_7686"><rect width="22.5" height="22.5" x=".75" y=".75" fill="#fff" rx="2.25"/></clipPath></defs></svg>