<svg xmlns="http://www.w3.org/2000/svg" width="24" height="24" fill="none" viewBox="0 0 24 24"><path fill="currentFill" d="M7.84682 4.19127L4.10596 3.92969L3.05961 18.8931L6.80048 19.1547"/><path fill="currentFill" d="M17.199 4.84524L20.9399 5.10683L19.8935 20.0703L16.1526 19.8087"/><path fill="#E8EFFD" d="M7.99728 15.4793L8.00663 15.4799L7.99728 15.4793Z"/><path fill="#E8EFFD" d="M11.7381 15.7409L11.7475 15.7415L11.7381 15.7409Z"/><path fill="#E8EFFD" d="M15.479 16.0024L15.4884 16.0031L15.479 16.0024Z"/><path stroke="currentColor" stroke-linecap="round" stroke-linejoin="round" stroke-width="1.496" d="M7.84682 4.19127L4.10596 3.92969L3.05961 18.8931L6.80048 19.1547M17.199 4.84524L20.9399 5.10683L19.8935 20.0703L16.1526 19.8087M7.99728 15.4793L8.00663 15.4799M11.7381 15.7409L11.7475 15.7415M15.479 16.0024L15.4884 16.0031"/></svg>