<svg xmlns="http://www.w3.org/2000/svg" width="24" height="24" fill="none" viewBox="0 0 24 24"><rect width="24" height="24" fill="none" rx="3"/><g clip-path="url(#clip0_36855_127168)"><rect width="22.5" height="22.5" x=".75" y=".75" fill="none" rx="2.25"/><path fill="currentFill" d="M3.60925 11.1178C3.49343 12.2198 3.59579 13.3338 3.91049 14.3962C4.22519 15.4586 4.74606 16.4486 5.44336 17.3097C6.14067 18.1708 7.00075 18.8861 7.9745 19.4148C8.94826 19.9435 10.0166 20.2753 11.1186 20.3911C12.2205 20.5069 13.3345 20.4045 14.3969 20.0898C15.4593 19.7751 16.4493 19.2543 17.3104 18.557C18.1715 17.8597 18.8868 16.9996 19.4156 16.0258C19.9443 15.0521 20.276 13.9837 20.3918 12.8818C20.6257 10.6563 19.966 8.42898 18.5577 6.68991C17.1494 4.95084 15.108 3.84243 12.8825 3.60852C10.657 3.37461 8.42971 4.03436 6.69064 5.44263C4.95157 6.8509 3.84316 8.89234 3.60925 11.1178Z"/><path fill="#E8EFFD" d="M4.46411 8.3797L20.1278 10.026L4.46411 8.3797Z"/><path fill="#E8EFFD" d="M3.87614 13.9739L19.5399 15.6202L3.87614 13.9739Z"/><path fill="#E8EFFD" d="M12.416 3.55949C10.5807 5.91142 9.44243 8.73125 9.1306 11.6982C8.81876 14.6651 9.34592 17.6599 10.6521 20.342"/><path fill="currentFill" d="M13.3487 3.65752C14.6548 6.33963 15.182 9.3345 14.8702 12.3014C14.5583 15.2683 13.42 18.0881 11.5848 20.4401"/><path stroke="currentColor" stroke-linecap="round" stroke-linejoin="round" stroke-width="1.496" d="M4.46411 8.3797L20.1278 10.026M3.87614 13.9739L19.5399 15.6202M12.416 3.55949C10.5807 5.91142 9.44243 8.73125 9.1306 11.6982C8.81876 14.6651 9.34592 17.6599 10.6521 20.342M13.3487 3.65752C14.6548 6.33963 15.182 9.3345 14.8702 12.3014C14.5583 15.2683 13.42 18.0881 11.5848 20.4401M3.60925 11.1178C3.49343 12.2198 3.59579 13.3338 3.91049 14.3962C4.22519 15.4586 4.74606 16.4486 5.44336 17.3097C6.14067 18.1708 7.00075 18.8861 7.9745 19.4148C8.94826 19.9435 10.0166 20.2753 11.1186 20.3911C12.2205 20.5069 13.3345 20.4045 14.3969 20.0898C15.4593 19.7751 16.4493 19.2543 17.3104 18.557C18.1715 17.8597 18.8868 16.9996 19.4156 16.0258C19.9443 15.0521 20.276 13.9837 20.3918 12.8818C20.6257 10.6563 19.966 8.42898 18.5577 6.68991C17.1494 4.95084 15.108 3.84243 12.8825 3.60852C10.657 3.37461 8.42971 4.03436 6.69064 5.44263C4.95157 6.8509 3.84316 8.89234 3.60925 11.1178Z"/></g><defs><clipPath id="clip0_36855_127168"><rect width="22.5" height="22.5" x=".75" y=".75" fill="#fff" rx="2.25"/></clipPath></defs></svg>