<svg xmlns="http://www.w3.org/2000/svg" width="24" height="24" fill="none" viewBox="0 0 24 24"><rect width="24" height="24" fill="none" rx="3"/><g clip-path="url(#clip0_36855_127272)"><rect width="22.5" height="22.5" x=".75" y=".75" fill="none" rx="2.25"/><path fill="#E8EFFD" d="M3.75727 18.6752L6.55436 18.9691L3.75727 18.6752Z"/><path fill="#E8EFFD" d="M13.0809 19.6551L19.6075 20.3411L13.0809 19.6551Z"/><path fill="#E8EFFD" d="M6.94965 14.2974L13.383 14.9735L6.94965 14.2974Z"/><path fill="#E8EFFD" d="M10.8797 6.50999L14.9448 19.8518L10.8797 6.50999Z"/><path fill="none" d="M4.68963 18.7731L11.8517 4.44329L13.7165 4.63928L18.6751 20.2431"/><path stroke="currentColor" stroke-linecap="round" stroke-linejoin="round" stroke-width="1.496" d="M3.75727 18.6752L6.55436 18.9691M13.0809 19.6551L19.6075 20.3411M6.94965 14.2974L13.383 14.9735M10.8797 6.50999L14.9448 19.8518M4.68963 18.7731L11.8517 4.44329L13.7165 4.63928L18.6751 20.2431"/></g><defs><clipPath id="clip0_36855_127272"><rect width="22.5" height="22.5" x=".75" y=".75" fill="#fff" rx="2.25"/></clipPath></defs></svg>