<svg xmlns="http://www.w3.org/2000/svg" xmlns:svg="http://www.w3.org/2000/svg" id="svg8" width="170mm" height="173mm" version="1.1" viewBox="0 0 170 173"><metadata id="metadata5"/><g id="layer2" style="opacity:1"><path id="rect862" style="fill:#1b64b6;fill-opacity:1;fill-rule:evenodd;stroke-width:6.46864;stroke-linecap:square;paint-order:markers fill stroke" d="M 7.9243621,0.40426573 H 162.081 c 4.29879,0 7.75955,3.45686397 7.75955,7.75081597 V 36.958129 c 0,4.293952 -3.46076,7.750816 -7.75955,7.750816 H 7.9243621 c -4.29883,0 -7.75961003,-3.456864 -7.75961003,-7.750816 V 8.1550817 c 0,-4.293952 3.46078003,-7.75081597 7.75961003,-7.75081597 z"/><rect style="fill:#2179d2;fill-opacity:1;fill-rule:evenodd;stroke:none;stroke-width:6.46499;stroke-linecap:square;paint-order:markers fill stroke" id="rect865" width="53.483" height="47.625" x=".212" y="30.049" ry="0"/><rect style="fill:#5edafe;fill-opacity:1;fill-rule:evenodd;stroke-width:6.46499;stroke-linecap:square;paint-order:markers fill stroke" id="rect865-6" width="53.484" height="47.625" x="116.336" y="30.049" ry="0"/><rect style="fill:#3ca8e8;fill-opacity:1;fill-rule:evenodd;stroke-width:6.99654;stroke-linecap:square;paint-order:markers fill stroke" id="rect865-5" width="62.64" height="47.625" x="53.695" y="30.049" ry="0"/><rect style="fill:#1b64b6;fill-opacity:1;fill-rule:evenodd;stroke-width:6.46499;stroke-linecap:square;paint-order:markers fill stroke" id="rect865-1" width="53.484" height="47.625" x=".212" y="77.674" ry="0"/><rect style="fill:#3ca8e8;fill-opacity:1;fill-rule:evenodd;stroke-width:6.46499;stroke-linecap:square;paint-order:markers fill stroke" id="rect865-6-7" width="53.484" height="47.625" x="116.336" y="77.674" ry="0"/><rect style="fill:#2179d2;fill-opacity:1;fill-rule:evenodd;stroke-width:6.99654;stroke-linecap:square;paint-order:markers fill stroke" id="rect865-5-7" width="62.64" height="47.625" x="53.695" y="77.674" ry="0"/><rect style="fill:#154a8a;fill-opacity:1;fill-rule:evenodd;stroke-width:6.46499;stroke-linecap:square;paint-order:markers fill stroke" id="rect865-1-1" width="53.484" height="47.625" x=".212" y="125.299" ry="7.751"/><rect style="fill:#1b64b6;fill-opacity:1;fill-rule:evenodd;stroke-width:6.99654;stroke-linecap:square;paint-order:markers fill stroke" id="rect865-5-7-8" width="62.639" height="47.625" x="53.696" y="125.299" ry="0"/><rect style="fill:#2179d2;fill-opacity:1;fill-rule:evenodd;stroke-width:6.46499;stroke-linecap:square;paint-order:markers fill stroke" id="rect865-1-1-4" width="53.484" height="47.625" x="116.336" y="125.299" ry="7.751"/><path style="fill:#154a8a;fill-opacity:1;stroke:none;stroke-width:.264583px;stroke-linecap:butt;stroke-linejoin:miter;stroke-opacity:1" id="path1012" d="m 0.21378207,125.2991 53.48140993,1e-5 0.003,47.62499 H 8.4247021 l -8.21573003,-8.21568 z"/><path style="fill:#2179d2;fill-opacity:1;stroke:none;stroke-width:.264583px;stroke-linecap:butt;stroke-linejoin:miter;stroke-opacity:1" id="path1012-9" d="m 169.82154,125.29911 h -53.48556 l 0.002,47.625 h 45.27325 l 8.21568,-8.21568 z"/></g></svg>